<svg xmlns="http://www.w3.org/2000/svg" data-name="Layer 1" viewBox="0 0 64 64"><path fill="#2a3673" d="M10.205 32.4c-.489-.091-.4-.679-.865-.494-.749.3-.42.712-1.024 1.247-.255.226-.388 0-.642.23-.605.54-.225 1.12-1.024 1.257-.551.095-.259-.495-.517-.991a.1.1 0 0 0-.058-.05c-.529-.163-.562-.573-1.058-.326-.375.186.295.505.036.834-.339.433-1.239-.088-1.019.417.3.675.894-.078 1.4.457.351.37.256.578 0 1.02-.315.543-.508.367-1.018.734a.1.1 0 0 0-.042.081c0 .581-.411.751 0 1.162.572.573.784.2 1.568.409a.1.1 0 0 1 .044.024L7.549 39.9a.1.1 0 0 1 .025.107c-.274.769.027.958-.547 1.538-.307.31-.625-.476-.867-.113a3.181 3.181 0 0 0-.8 2.614c.011.45.463.42.871.231a2.625 2.625 0 0 0 1.592-1.369c.281-.436-.019-.519-.037-1.038a.1.1 0 0 1 .011-.048L9.208 39.04a.1.1 0 0 1 .068-.054l2.8-.557a.1.1 0 0 0 .057-.031c.631-.742.63-.742 1.262-1.484l.006-.008c.59-.863.591-.863 1.18-1.726a.1.1 0 0 1 .1-.043 4.746 4.746 0 0 0 1.337.254c.28 0 .483.015.493-.265.014-.394-.16-.385-.461-.64a4.9 4.9 0 0 0-1.013-.612l-.009-.006-1.57-1.193a.1.1 0 0 0-.052-.021A10.665 10.665 0 0 1 10.205 32.4zM31.788 41.3c1.22-.3 1.22-.3 2.439-.594a.1.1 0 0 1 .083.016l2.357 1.753a.8.8 0 0 0 .569.155c.247-.027.247-.029.494-.056a.806.806 0 0 0 .7-.606c.011-.046.008-.046.019-.092a.8.8 0 0 1 1.263-.449c.2.147.2.145.394.293a.8.8 0 0 1 .244.286c.317.643.317.643.633 1.287a.1.1 0 0 0 .082.055l1.1.059a.822.822 0 0 1 .385.124c1.527.96 1.525.963 3.053 1.922a.1.1 0 0 1 .042.041c.515 1.178.516 1.178 1.031 2.356a.094.094 0 0 0 .044.05l1.919.958a.109.109 0 0 1 .036.035L50.2 51.079a.1.1 0 0 0 .121.037l3.606-1.477a.089.089 0 0 1 .051-.008c1.524.219 1.524.216 3.048.436a.1.1 0 0 0 .1-.041c.753-1.128.751-1.13 1.505-2.258a.1.1 0 0 0 .015-.07c-.146-.936-.141-.937-.288-1.874a.1.1 0 0 1 .027-.093c.791-.688.793-.685 1.584-1.374A.1.1 0 0 0 60 44.282c0-1.023-.007-1.023-.007-2.047a.1.1 0 0 0-.009-.048l-4.808-8.726a.1.1 0 0 1-.011-.057c.374-3.9.375-3.9.749-7.791a.1.1 0 0 1 .038-.074c.58-.4.582-.4 1.161-.8a.1.1 0 0 0 .038-.06c.356-1.47.355-1.47.711-2.94a.1.1 0 0 1 .019-.039c.814-1.036.879-.988 1.633-2.069a1.09 1.09 0 0 0 .28-.665c.027-.183-.038-.187-.128-.349-.472-.862-.142-1.208-1-1.692-.44-.249.221.925-.283.967-4.178.352-4.191-.122-8.382-.243a.087.087 0 0 1-.049-.016c-1.842-1.176-1.844-1.173-3.686-2.349a.107.107 0 0 0-.056-.012c-1.92.042-1.92.037-3.84.079a.112.112 0 0 1-.049-.007c-1-.505-1-.508-2-1.013a.1.1 0 0 0-.07-.005l-1.661.454a.108.108 0 0 1-.095-.023c-1.053-.935-.722-1.6-2.1-1.869-.706-.138.4.977-.16 1.423-.537.426-.728-.525-1.349-.235-.393.185-.226.5 0 .87.417.67 1.418.287 1.185 1.041-.336 1.091-.786 1.014-1.9 1.269-.545.125-.466-.311-.931-.621a.093.093 0 0 0-.052-.012c-1.829-.078-1.828-.085-3.657-.162a.1.1 0 0 1-.074-.038c-.344-.457-.258-1.288-.69-.912-.773.673-.268.989-.535 1.979a.1.1 0 0 1-.11.075l-1.8-.229a.112.112 0 0 0-.041 0c-.994.3-.994.306-1.988.61a.1.1 0 0 0-.073.075c-.153.847.353 1.136-.3 1.694-.513.439-.657-.158-1.314-.313a.1.1 0 0 0-.063.009l-3.281 1.4a.1.1 0 0 0-.047.041c-.578.965-.574.968-1.152 1.933a.09.09 0 0 0-.014.05l.074 6.568a.094.094 0 0 0 .079.1c.634.111.633.331 1.268.225.447-.075.268-.49.716-.558.944-.143 1.277-.561 1.9.161.456.527-.372.587-.745 1.177a.8.8 0 0 1-.595.367c-.178.019-.178.021-.356.04a.8.8 0 0 0-.716.85c.058.956.053.956.11 1.911a.11.11 0 0 0 .021.047l1.724 2.664a.069.069 0 0 0 .016.018c1.464 1.346 1.237 1.644 2.927 2.691a.637.637 0 0 0 1.03-.236c.447-.729.078-.853.16-1.7a.1.1 0 0 1 .039-.065c.635-.512.633-.515 1.267-1.027a.808.808 0 0 1 1.221.248c.1.194.1.2.2.389a.808.808 0 0 1 .078.537c-.526 2.591-.529 2.591-1.056 5.181a.194.194 0 0 0 0 .02c0 .589-.475.836 0 1.178s.55-.2 1.1-.393a.166.166 0 0 0 .014-.013c1.614-.951 1.617-.947 3.231-1.9A.119.119 0 0 1 31.788 41.3zM16.386 25.371c-.847-.334-1.154-.478-1.815.149-.461.437-.214.981.377 1.215.912.359 1.088.188 1.936-.3C17.424 26.119 16.932 25.586 16.386 25.371zM6 29.316c.964-.082.884-.395 1.767-.789a.089.089 0 0 1 .032-.008l1.7-.144a.1.1 0 0 1 .1.046c.626 1.039.152 1.566 1.252 2.078.615.286.318-.6.635-1.2a.1.1 0 0 1 .033-.037c.86-.569.86-.568 1.721-1.136a.1.1 0 0 1 .086-.012c.6.2 1.048 1.018 1.2.4.26-1.043-.4-1-.8-1.993a.1.1 0 0 0-.087-.061l-1.757-.112a.1.1 0 0 1-.063-.03l-.98-.97a.094.094 0 0 0-.054-.028c-.552-.094-.591-.413-1.1-.188-.357.157 0 .418-.191.757a8.277 8.277 0 0 1-.967 1.279.119.119 0 0 1-.037.03c-1.639.771-1.812.477-3.278 1.541C4.788 29.049 5.515 29.358 6 29.316zM14.718 32.116l2.334 1.79a.1.1 0 0 0 .115.005c.5-.322.977-.049 1-.644.049-1.211-.442-1.128-.884-2.256a.1.1 0 0 0-.09-.063c-1.312-.039-1.421-.6-2.624-.078-.541.236.054.588.108 1.176A.1.1 0 0 0 14.718 32.116z" class="color000000 svgShape"/></svg>