<?xml version="1.0" encoding="utf-8"?>
<!-- Generator: Adobe Illustrator 24.1.2, SVG Export Plug-In . SVG Version: 6.00 Build 0)  -->
<svg version="1.1" id="Слой_1" xmlns="http://www.w3.org/2000/svg" xmlns:xlink="http://www.w3.org/1999/xlink" x="0px" y="0px"
	 viewBox="0 0 800 800" style="enable-background:new 0 0 800 800;" xml:space="preserve">
<style type="text/css">
	.st0{fill:#FFFFFF;stroke:#020203;stroke-miterlimit:10;}
	.st1{fill:#FFFFFF;}
	.st2{fill:#FDFDFD;}
	.st3{fill:#293670;}
	.st4{fill:#FCFCFC;}
	.st5{fill:none;stroke:#2BA0DA;stroke-width:12;stroke-linecap:round;stroke-miterlimit:10;}
	.st6{fill:#2BA0DA;}
</style>
<path class="st0" d="M527.3,325.1"/>
<circle class="st1" cx="370.3" cy="534.4" r="10.7"/>
<g>
	<path class="st1" d="M231.1,436.7"/>
</g>
<g>
	<path class="st2" d="M234.1,459l19.7-38l27.6,11.4c0,0,5.7-14.2,3.8-19.9l-39.4-16.3l-20.1,35.4L234.1,459z"/>
</g>
<g>
	<g>
		<path class="st3" d="M402.8,562.3c-97.2,0-176.2-79.1-176.2-176.2s79.1-176.2,176.2-176.2c97.2,0,176.2,79.1,176.2,176.2
			S500,562.3,402.8,562.3z M402.8,250.5c-74.7,0-135.5,60.8-135.5,135.5s60.8,135.5,135.5,135.5c74.7,0,135.5-60.8,135.5-135.5
			S477.6,250.5,402.8,250.5z"/>
	</g>
	<g>
		<path class="st3" d="M226.4,478.2l90.1-36c2.7-1.1,2.7-4.9,0-6L257.7,412c-1.5-0.6-3.3,0-4.1,1.5l-31.2,60.3
			C221,476.4,223.7,479.4,226.4,478.2z"/>
	</g>
	<g>
		<path class="st4" d="M577.5,349.7l-12.7,17.9c-0.3,0.5-1,0.6-1.5,0.3l-27.3-15.9c-0.6-0.4-1.4-0.1-1.7,0.6
			c-1.4,4.2-5.7,17-5.9,22.5c0,0.4,0.2,0.8,0.6,1l34.2,18.5c0.5,0.3,1.1,0.1,1.5-0.3l21.6-29c0.3-0.3,0.3-0.8,0.1-1.2l-7.1-14.4
			C579.1,349.1,578,349,577.5,349.7z"/>
	</g>
	<g>
		<path class="st3" d="M505,334.3l92.2-14.8c2.9-0.5,5,2.8,3.2,5.2L566,371.9c-1,1.4-2.8,1.8-4.3,0.9l-57.8-32.3
			C501.2,339,501.9,334.8,505,334.3z"/>
	</g>
</g>
<g>
	<path class="st4" d="M237.2,445.2l17.1-33c0.4-0.8,1.3-1.1,2.2-0.8l24.6,10.1c0.9,0.4,1.9-0.1,2.2-1c1.3-3.6,4.3-12.4,3.5-17.3
		c-0.1-0.6-0.5-1.1-1-1.3c-4.9-2-31-12.8-37.3-15.4c-0.8-0.3-1.7,0-2.1,0.7l-19,33.4c-0.2,0.4-0.3,0.9-0.1,1.3l7,22.8
		C234.5,446.4,236.5,446.6,237.2,445.2z"/>
</g>
<path class="st5" d="M310.3,303.8h14.9c1.4,0,2.7,0.9,3.1,2.3l35.6,112.1c0.4,1.3,1.7,2.3,3.1,2.3h88.4c1.2,0,2.3-0.7,2.9-1.8
	L495,346c1.1-2.1-0.5-4.7-2.9-4.7l-152.9-0.8"/>
<circle class="st6" cx="369.9" cy="461.1" r="16.2"/>
<circle class="st6" cx="458.7" cy="461.1" r="16.2"/>
</svg>
