<?xml version="1.0" encoding="utf-8"?>
<!-- Generator: Adobe Illustrator 24.1.2, SVG Export Plug-In . SVG Version: 6.00 Build 0)  -->
<svg version="1.1" id="Слой_1" xmlns="http://www.w3.org/2000/svg" xmlns:xlink="http://www.w3.org/1999/xlink" x="0px" y="0px"
	 viewBox="0 0 800 800" style="enable-background:new 0 0 800 800;" xml:space="preserve">
<style type="text/css">
	.st0{fill:#2CA1DB;}
	.st1{fill:#2B3673;}
</style>
<path class="st0" d="M453,395.4c1.2,1.2,2,2.9,2,4.9c0,2.5-0.8,4.1-2,5.3c-1.6,1.2-3.7,1.6-6.6,1.6h-3.3v-13.5h4.5
	C450.1,393.7,451.8,394.5,453,395.4z"/>
<path class="st1" d="M537.4,483.8h-14.7c-2.5,0-4.1,2-4.1,4.1v29.9c0,11.1-9,20.5-20.1,20.5l-183.9,1.2c-9.8,0-18-6.6-20.1-16
	c-0.4-1.2-0.4-2.9-0.4-4.5l-0.8-189.7c0-1.2,1.2-2.5,2.5-2.5l77-0.4c13.5,0,24.2-11.1,24.2-24.2l-0.4-64.3c0-1.2,1.2-2.5,2.5-2.5
	l97.5-0.8c11.1,0,20.5,9,20.5,20.1l0.4,75.8c0,2.5,2,4.1,4.1,4.1h14.7c2.5,0,4.1-2,4.1-4.1l-0.4-87.7c0-17.6-14.3-32-32.4-32
	L388,212c-3.3,0-7,1.2-9.4,3.7l-104.1,95.5c-2.9,2.9-4.5,6.6-4.5,10.2l0.8,208.9c0,17.6,14.3,32,32.4,32l207.3-0.4
	c17.6-0.8,32-15.2,32-32.8v-41.4C541.5,485.9,539.9,483.8,537.4,483.8z"/>
<path class="st0" d="M488.2,393.7h-5.3v29.9h4.1c9.4,0,13.9-4.9,13.9-15.2C501.4,398.6,496.9,393.7,488.2,393.7z M488.2,393.7h-5.3
	v29.9h4.1c9.4,0,13.9-4.9,13.9-15.2C501.4,398.6,496.9,393.7,488.2,393.7z M582.9,354H399.8c-7,0-12.3,5.7-12.3,12.3v85.2
	c0,7,5.7,12.3,12.3,12.3h183.1c7,0,12.3-5.7,12.3-12.3v-85.2C595.2,359.3,589.8,354,582.9,354z M460.4,411.3
	c-3.3,2.5-7.4,4.1-13.1,4.1h-4.1v16.4h-9.8v-45.9h14.7c5.7,0,9.8,1.2,12.7,3.7c2.9,2.5,4.5,6.1,4.5,10.7
	C464.9,405.2,463.3,408.9,460.4,411.3z M505,425.7c-4.1,4.1-10.7,6.1-18.4,6.1h-13.1v-45.9h14.3c7.4,0,13.1,2,17.2,5.7
	c4.1,4.1,6.1,9.4,6.1,16.4C511.2,415.8,509.1,421.6,505,425.7z M547.2,393.7h-16.8v11.9H546v7.8h-15.6v18H521v-45.5h26.2V393.7z
	 M488.2,393.7h-5.3v29.9h4.1c9.4,0,13.9-4.9,13.9-15.2C501.4,398.6,496.9,393.7,488.2,393.7z"/>
</svg>
