<?xml version="1.0" encoding="utf-8"?>
<!-- Generator: Adobe Illustrator 24.1.2, SVG Export Plug-In . SVG Version: 6.00 Build 0)  -->
<svg version="1.1" id="Слой_1" xmlns="http://www.w3.org/2000/svg" xmlns:xlink="http://www.w3.org/1999/xlink" x="0px" y="0px"
	 viewBox="0 0 800 800" style="enable-background:new 0 0 800 800;" xml:space="preserve">
<style type="text/css">
	.st0{fill:#FFFFFF;}
	.st1{fill:#2B3673;}
	.st2{fill:#2BA0DB;}
</style>
<circle class="st0" cx="370.3" cy="534.4" r="10.7"/>
<path class="st1" d="M468.9,236.1v-12.5c0-6.9-5.6-12.5-12.5-12.5h-85.1c-6.9,0-12.5,5.6-12.5,12.5v12.5
	C363.3,236.1,468.9,236.1,468.9,236.1L468.9,236.1z M262.5,444h71.3c6.9,0,12.5-5.6,12.5-12.5V401c-6.4,0-96.3,0-96.3,0v30.5
	C250,438.4,255.6,444,262.5,444L262.5,444z M277.5,410h23.1c3.5,0,6.3,2.8,6.3,6.3s-2.8,6.3-6.3,6.3h-23.1c-3.4-0.1-6.2-2.8-6.2-6.3
	S274,410,277.5,410L277.5,410z M346.3,388.4v-11.6c0-6.9-5.6-12.5-12.5-12.5h-29.4v-1.7c0-5.4,8.5-11.4,20.7-11.4h82.4v13.1h-29.4
	c-6.9,0-12.5,5.6-12.5,12.5v11.6c17.6,0,78.8,0,96.4,0v-11.6c0-6.9-5.6-12.5-12.5-12.5H420v-13.1h82.4c13.2,0.3,21.5,6,20.7,13.1
	h-29.4c-6.9,0-12.5,5.6-12.5,12.5v11.6c0,0,90,0,96.3,0v-11.6c0-3.3-1.3-6.5-3.7-8.9s-5.5-3.7-8.9-3.6h-29.4
	c1-14.6-13.8-25.6-33.2-25.7H420v-34.8h36.3c6.9,0,12.5-5.6,12.5-12.5v-42.7c0,0-105.3,0-110.2,0v42.7c0,6.9,5.6,12.5,12.5,12.5
	h36.3v34.8H325c-18.6,0-33.2,10.5-33.2,23.9v1.7h-29.4c-3.3,0-6.5,1.3-8.9,3.6c-2.4,2.4-3.7,5.6-3.7,8.9v11.6
	C267.5,388.4,328.7,388.4,346.3,388.4L346.3,388.4z M437.4,255.4c2.8,0.1,5.1,2.4,5.1,5.2c0,2.8-2.3,5.2-5.1,5.2
	c-2.8-0.1-5.1-2.4-5.1-5.2S434.6,255.4,437.4,255.4L437.4,255.4z M384.4,254.4h23.3c3.4,0.1,6.2,2.8,6.2,6.3c0,3.4-2.7,6.2-6.2,6.3
	h-23.3c-3.4-0.1-6.2-2.8-6.2-6.3C378.2,257.2,381,254.4,384.4,254.4L384.4,254.4z M384.4,285.7c-3.4-0.1-6.2-2.8-6.2-6.3
	s2.7-6.2,6.2-6.3h42c3.4,0,6.2,2.8,6.2,6.3c0,3.4-2.7,6.2-6.2,6.3H384.4z M577.6,431.5V401c-6.4,0-96.3,0-96.3,0v30.5
	c0,6.9,5.6,12.5,12.5,12.5h71.3C572,444,577.6,438.4,577.6,431.5L577.6,431.5z M531.9,422.5h-23.1c-3.4-0.1-6.2-2.8-6.2-6.3
	c0-3.4,2.7-6.2,6.2-6.3h23.1c3.4,0,6.3,2.8,6.3,6.3S535.4,422.5,531.9,422.5L531.9,422.5z"/>
<path class="st1" d="M520.4,482.2H491v-2.1c0-10.1-8.2-18.3-18.3-18.3H420V444h29.4c6.9,0,12.5-5.6,12.5-12.5V401
	c-6.4,0.1-96.4,0-96.4,0v30.5c0,6.9,5.6,12.5,12.5,12.5h29.4v17.8h-54c-5.2,0-10.2,2.3-13.7,6.2c-3.5,3.9-5.2,9.1-4.6,14.3h-30.9
	c-6.9,0-12.5,5.6-12.5,12.5v11.6c0,0,89.4,0,96.4,0v-11.6c0-6.9-5.6-12.5-12.5-12.5h-27.9v-2.1c0-3.2,2.6-5.8,5.8-5.8h119.2
	c1.9,0.1,3.6,1.1,4.8,2.6c1.1,1.5,1.5,3.5,1,5.3h-29.4c-6.9,0-12.5,5.6-12.5,12.5v11.6c0,0,89.9,0,96.4,0v-11.6
	C533,487.8,527.4,482.2,520.4,482.2L520.4,482.2z M393.2,422.5c-3.4-0.1-6.2-2.8-6.2-6.3c0-3.4,2.7-6.2,6.2-6.3h23.1
	c3.5,0,6.3,2.8,6.3,6.3s-2.8,6.3-6.3,6.3H393.2z M436.6,518.9v30.5c0,6.9,5.6,12.5,12.5,12.5h71.3c6.9,0,12.5-5.6,12.5-12.5v-30.5
	C526.6,518.9,436.6,518.9,436.6,518.9L436.6,518.9z M487.3,540.5h-23.1c-3.4-0.1-6.2-2.8-6.2-6.3c0-3.4,2.7-6.2,6.2-6.3h23.1
	c3.5,0,6.3,2.8,6.3,6.3C493.6,537.6,490.7,540.5,487.3,540.5L487.3,540.5z M291.8,518.9v30.5c0,6.9,5.6,12.5,12.5,12.5h71.3
	c6.9,0,12.5-5.6,12.5-12.5v-30.5C381.8,518.9,291.8,518.9,291.8,518.9L291.8,518.9z M342.5,540.5h-23.1c-3.4-0.1-6.2-2.8-6.2-6.3
	c0-3.4,2.8-6.2,6.2-6.3h23.1c3.5,0,6.3,2.8,6.3,6.3C348.8,537.6,346,540.5,342.5,540.5L342.5,540.5z"/>
<path class="st2" d="M464.2,527.9h23.1c3.5,0,6.3,2.8,6.3,6.3s-2.8,6.3-6.3,6.3h-23.1c-3.4-0.1-6.2-2.8-6.2-6.3
	S460.7,528,464.2,527.9L464.2,527.9z"/>
<path class="st2" d="M277.5,410h23.1c3.5,0,6.3,2.8,6.3,6.3s-2.8,6.3-6.3,6.3h-23.1c-3.4-0.1-6.2-2.8-6.2-6.3S274,410,277.5,410
	L277.5,410z"/>
<path class="st2" d="M319.4,527.9h23.1c3.5,0,6.3,2.8,6.3,6.3s-2.8,6.3-6.3,6.3h-23.1c-3.4-0.1-6.2-2.8-6.2-6.3S316,528,319.4,527.9
	L319.4,527.9z"/>
<path class="st2" d="M393.2,410h23.1c3.5,0,6.3,2.8,6.3,6.3s-2.8,6.3-6.3,6.3h-23.1c-3.4-0.1-6.2-2.8-6.2-6.3S389.7,410,393.2,410
	L393.2,410z"/>
<path class="st2" d="M384.4,254.4h23.1c3.5,0,6.3,2.8,6.3,6.3s-2.8,6.3-6.3,6.3h-23.1c-3.4-0.1-6.2-2.8-6.2-6.3
	C378.2,257.2,381,254.4,384.4,254.4L384.4,254.4z"/>
</svg>
