<?xml version="1.0" encoding="utf-8"?>
<!-- Generator: Adobe Illustrator 24.1.2, SVG Export Plug-In . SVG Version: 6.00 Build 0)  -->
<svg version="1.1" id="Слой_1" xmlns="http://www.w3.org/2000/svg" xmlns:xlink="http://www.w3.org/1999/xlink" x="0px" y="0px"
	 viewBox="0 0 1397.28 193.2" style="enable-background:new 0 0 1397.28 193.2;" xml:space="preserve">
<style type="text/css">
	.st0{fill:#2A3673;}
	.st1{fill:#29A1DC;}
	.st2{fill:#33B297;}
	.st3{fill:#FFFFFF;}
	.st4{fill:#8F8F8F;}
	.st5{fill:#724D68;}
</style>
<g>
	<path class="st0" d="M437.78,122.29c-1.95,1.58-4.73,2.89-8.33,3.92c-3.6,1.03-6.8,1.55-9.61,1.55c-10.98,0-19.62-2.77-25.9-8.31
		c-6.29-5.54-9.43-13.42-9.43-23.64v-41.8h-11.9V35.78h11.9V14.55l23.62-3.96v25.19h16.11l0.23,18.09l-16.34,0.16v37.6
		c0,4.63,1.1,8.43,3.3,11.41c2.2,2.98,5.43,4.47,9.7,4.47c1.58,0,3.17-0.18,4.76-0.55c1.58-0.36,3.23-0.97,4.94-1.83L437.78,122.29z
		"/>
	<path class="st0" d="M527.3,49.65c3.78-4.26,8.82-7.63,15.1-10.13c6.28-2.49,11.93-3.74,16.93-3.74c12.08,0,20.65,3.53,25.72,10.59
		c5.06,7.06,7.6,15.7,7.6,25.92v55.49h-23.98V73.38c0-5.6-1.34-9.89-4.03-12.87c-2.69-2.98-6.59-4.47-11.72-4.47
		c-3.42,0-7.02,0.91-10.8,2.74c-3.78,1.83-7.2,3.9-10.25,6.21c0.12,1.22,0.24,2.44,0.37,3.65c0.12,1.22,0.18,2.44,0.18,3.65v55.49
		h-23.98V73.38c0-5.6-1.34-9.89-4.03-12.87c-2.69-2.98-6.53-4.47-11.53-4.47c-3.05,0-6.13,0.64-9.24,1.92s-6.07,2.89-8.88,4.84
		v64.98h-23.8l0-88.03l23.99-3.96v7.23c3.05-2.19,4.3-2.73,8.87-4.22c5.72-1.87,10.77-3.01,15.29-3.01c6.96,0,12.75,1.25,17.39,3.74
		C521.14,42.01,524.74,45.39,527.3,49.65z"/>
	<path class="st0" d="M626.33,0c3.78,0,6.99,1.28,9.61,3.83c2.62,2.56,3.94,5.72,3.94,9.49c0,3.77-1.31,6.94-3.94,9.49
		c-2.63,2.56-5.83,3.83-9.61,3.83c-3.66,0-6.77-1.28-9.34-3.83c-2.56-2.56-3.84-5.72-3.84-9.49c0-3.77,1.28-6.94,3.84-9.49
		C619.56,1.28,622.67,0,626.33,0z M638.23,35.78l0,91.99h-23.8l0-91.99H638.23z"/>
	<path class="st0" d="M651.05,127.77l33.5-44.9L651.8,35.78h23.92l24.03,31.94l25.05-31.94h26.01l-38.02,48.21l32.36,43.79h-26.18
		l-20.46-26.95l-21.09,26.95H651.05z"/>
	<path class="st0" d="M187.85,81.41c0-27.01,19.59-46.18,46.86-46.18c18.12,0,29.11,7.85,34.96,15.88l-15.19,14.24
		c-4.21-6.21-10.62-9.49-18.67-9.49c-14.1,0-23.98,10.22-23.98,25.55s9.89,25.74,23.98,25.74c8.05,0,14.46-3.65,18.67-9.49
		l15.19,14.05c-5.86,8.21-16.84,16.06-34.96,16.06C207.44,127.77,187.85,108.6,187.85,81.41z"/>
	<path class="st0" d="M279.2,81.41c0-25.55,18.86-46.18,45.76-46.18c26.36,0,44.3,19.71,44.3,48.55v5.11h-65.72
		c1.46,11.13,10.43,20.44,25.45,20.44c7.51,0,17.94-3.28,23.61-8.76l10.25,14.97c-8.79,8.03-22.7,12.23-36.43,12.23
		C299.51,127.77,279.2,109.7,279.2,81.41z M324.96,53.66c-14.46,0-20.69,10.77-21.78,19.53h43.57
		C346.19,64.8,340.34,53.66,324.96,53.66z"/>
</g>
<path class="st1" d="M92.09,91.92c0.55,0.28,0.66,1.04,0.21,1.46c-3.1,2.84-6.57,5.24-10.28,7.12c-6.56,3.23-13.83,4.82-21.01,4.67
	c-7.19-0.25-14.26-2.2-20.42-5.69c-6.12-3.53-11.32-8.51-15.06-14.36c-3.69-5.9-5.84-12.64-6.37-19.44
	c-0.4-6.81,0.78-13.66,3.53-19.79c1.45-3.03,3.14-5.92,5.19-8.55c2.07-2.61,4.46-4.95,7.06-6.98c5.24-4.04,11.43-6.69,17.84-7.77
	c-6.32,1.54-12.19,4.61-16.94,8.86c-2.36,2.13-4.46,4.54-6.24,7.14c-1.76,2.63-3.14,5.46-4.28,8.37
	c-2.13,5.87-2.72,12.21-1.91,18.27c0.93,6.06,3.27,11.85,6.83,16.7c3.61,4.81,8.36,8.69,13.68,11.28
	c5.35,2.53,11.25,3.65,17.04,3.45c5.79-0.32,11.44-2.02,16.34-4.89c1.94-1.18,3.75-2.54,5.42-4.04c0.28-0.25,0.68-0.31,1.01-0.13
	L92.09,91.92z"/>
<path class="st1" d="M110.15,107.86c0.37,0.43,0.32,1.07-0.09,1.45c-0.2,0.19-0.41,0.38-0.61,0.56c-2.58,2.32-5.38,4.44-8.29,6.35
	c-2.9,1.92-5.99,3.54-9.15,4.96c-3.16,1.43-6.43,2.58-9.77,3.47c-13.32,3.64-27.66,2.92-40.39-1.87
	c-12.75-4.77-23.75-13.54-31.17-24.66C3.23,87.01-0.45,73.66,0.04,60.55c0.45-13.1,5.19-25.92,13.17-36.06
	C21.14,14.31,32.26,6.74,44.49,3.25c12.21-3.54,25.42-3.21,37.2,1c5.88,2.1,11.42,5.08,16.32,8.83c4.94,3.72,9.24,8.23,12.74,13.26
	c-3.79-4.81-8.29-9.03-13.36-12.41c-5.02-3.42-10.59-5.99-16.36-7.69C69.46,2.86,56.94,3.32,45.79,7.27
	c-11.19,3.9-20.88,11.42-27.47,20.97c-6.64,9.53-10.1,21.04-9.82,32.41c0.24,11.37,4.1,22.51,10.82,31.42
	c6.71,8.9,16.24,15.55,26.69,18.78c10.45,3.27,21.83,3.12,32.02-0.31c8.14-2.71,15.45-7.42,21.18-13.57
	c0.4-0.43,1.07-0.47,1.49-0.06c0.64,0.62,1.25,1.27,1.82,1.95C102.51,98.85,108.21,105.58,110.15,107.86z"/>
<path class="st1" d="M149.97,38.96l-35.86,43.7l1.97,4.13l4.13,8.63c0.72,1.53,0.39,3.35-0.85,4.5l-2.87,2.71
	c-0.18,0.17-0.42,0.22-0.65,0.16c-0.09-0.02-0.19-0.07-0.26-0.16c-0.03-0.02-0.06-0.04-0.08-0.07l-7.95-9.41
	c-0.78-0.92-1.61-1.8-2.49-2.61c-0.66-0.64-1.35-1.24-2.06-1.8c-1.43-1.14-2.95-2.16-4.56-3.02c-0.25-0.15-0.5-0.29-0.76-0.42
	l-9.29-4.77l-1.68-0.87c-0.35-0.18-0.47-0.62-0.28-0.96l2-3.39c0.86-1.46,2.56-2.2,4.22-1.83l13.83,3.11L120.5,58.5L91.59,45.85
	c-0.4-0.18-0.54-0.7-0.26-1.05l4.47-5.58c1.85-2.32,4.81-3.44,7.73-2.96l30.29,5.08l7.5-9.65c1.69-2.17,3.89-3.89,6.41-5l3.49-1.53
	c0.48-0.22,0.98-0.24,1.43-0.12c0.26,0.07,0.5,0.18,0.7,0.33l0.04,0.03c0.54,0.45,0.88,1.17,0.73,1.99l-0.58,3.67
	C153.06,33.97,151.83,36.7,149.97,38.96z"/>
<g>
	<path class="st1" d="M155.34,77.95l-4.47,5.58c-0.17,0.22-0.46,0.3-0.71,0.23c-0.15-0.04-0.28-0.12-0.38-0.25l-17.3-23.31
		l13.39-16.22l10.63,25.79C157.64,72.52,157.19,75.64,155.34,77.95z"/>
</g>
<path class="st2" d="M1395.73,190.01c-0.02,1.75-1.44,3.17-3.19,3.19h-216.57c-1.75-0.02-3.17-1.44-3.19-3.19v-43.99
	c0.02-1.75,1.44-3.17,3.19-3.19h216.66c1.75,0.02,3.17,1.44,3.19,3.19L1395.73,190.01z"/>
<path class="st3" d="M1196.83,169.25v8.93h-2.91v-21.4h6.01c1.2-0.05,2.4,0.1,3.55,0.46c0.9,0.21,1.74,0.61,2.46,1.18
	c0.61,0.53,1.11,1.18,1.46,1.91c0.3,0.79,0.45,1.62,0.46,2.46c0.02,0.72-0.1,1.43-0.36,2.09c-0.22,0.63-0.56,1.22-1,1.73
	c-0.48,0.52-1.04,0.98-1.64,1.37c-0.68,0.38-1.42,0.66-2.19,0.82c0.37,0.23,0.68,0.54,0.91,0.91l6.19,8.47h-2.55
	c-0.49,0.04-0.95-0.21-1.18-0.64l-5.56-7.65c-0.13-0.23-0.32-0.41-0.55-0.55c-0.28-0.13-0.6-0.2-0.91-0.18L1196.83,169.25
	L1196.83,169.25z M1196.83,167.15h3.01c0.74,0.01,1.47-0.08,2.19-0.27c0.6-0.16,1.15-0.44,1.64-0.82c0.43-0.37,0.77-0.84,1-1.37
	c0.22-0.55,0.34-1.14,0.36-1.73c0.06-1.12-0.41-2.2-1.28-2.91c-1.1-0.73-2.41-1.08-3.73-1h-3.19V167.15L1196.83,167.15z"/>
<path class="st3" d="M1218.42,162.78c0.87,0.01,1.73,0.16,2.55,0.46c0.75,0.28,1.43,0.72,2,1.27c0.58,0.59,1.02,1.31,1.28,2.09
	c0.31,0.94,0.46,1.92,0.46,2.91c-0.01,0.28-0.04,0.55-0.09,0.82c-0.15,0.13-0.35,0.19-0.55,0.18h-10.02
	c0.01,0.83,0.13,1.66,0.36,2.46c0.2,0.64,0.54,1.23,1,1.73c0.42,0.44,0.91,0.81,1.46,1.09c0.6,0.27,1.26,0.39,1.91,0.36
	c0.59,0.01,1.17-0.08,1.73-0.27c0.42-0.18,0.84-0.33,1.28-0.46c0.32-0.16,0.62-0.34,0.91-0.55c0.18-0.15,0.4-0.25,0.64-0.27
	c0.21,0.01,0.41,0.11,0.55,0.27l0.73,1c-0.35,0.38-0.75,0.72-1.18,1c-0.46,0.3-0.95,0.54-1.46,0.73c-0.53,0.19-1.08,0.35-1.64,0.46
	c-0.54,0.08-1.09,0.11-1.64,0.09c-1,0-1.99-0.18-2.91-0.55c-0.86-0.35-1.63-0.88-2.28-1.55c-0.69-0.71-1.2-1.59-1.46-2.55
	c-0.38-1.11-0.56-2.28-0.55-3.46c0-0.99,0.16-1.97,0.46-2.91c0.32-0.86,0.79-1.66,1.37-2.37c0.63-0.65,1.37-1.17,2.19-1.55
	C1216.45,162.94,1217.43,162.78,1218.42,162.78z M1218.51,164.78c-1.11-0.06-2.2,0.33-3.01,1.09c-0.79,0.85-1.27,1.94-1.37,3.1h8.2
	c0.01-0.59-0.09-1.17-0.27-1.73c-0.17-0.49-0.41-0.95-0.73-1.37c-0.33-0.35-0.74-0.63-1.18-0.82
	C1219.62,164.86,1219.07,164.77,1218.51,164.78z"/>
<path class="st3" d="M1239.18,178.17H1238c-0.22,0.02-0.44-0.01-0.64-0.09c-0.19-0.11-0.3-0.33-0.27-0.55l-0.27-1.37
	c-0.36,0.36-0.82,0.64-1.18,1c-0.37,0.28-0.77,0.52-1.18,0.73c-0.44,0.21-0.89,0.36-1.37,0.46c-0.51,0.11-1.03,0.17-1.55,0.18
	c-0.56,0-1.11-0.09-1.64-0.27c-0.49-0.17-0.95-0.41-1.37-0.73c-0.38-0.37-0.68-0.8-0.91-1.27c-0.23-0.58-0.35-1.2-0.36-1.82
	c0.01-0.6,0.17-1.2,0.46-1.73c0.4-0.6,0.93-1.09,1.55-1.46c0.91-0.52,1.89-0.89,2.91-1.09c1.44-0.28,2.91-0.4,4.37-0.36v-1.18
	c0.06-0.94-0.19-1.87-0.73-2.64c-0.55-0.62-1.36-0.96-2.19-0.91c-0.56-0.01-1.12,0.08-1.64,0.27c-0.46,0.18-0.82,0.36-1.18,0.55
	c-0.3,0.14-0.58,0.32-0.82,0.55c-0.21,0.17-0.46,0.26-0.73,0.27c-0.17,0-0.33-0.07-0.46-0.18c-0.09-0.09-0.27-0.18-0.36-0.36
	l-0.46-0.82c1.57-1.57,3.7-2.45,5.92-2.46c0.78,0,1.56,0.16,2.28,0.46c0.63,0.26,1.2,0.66,1.64,1.18c0.49,0.51,0.84,1.14,1,1.82
	c0.27,0.76,0.39,1.56,0.36,2.37L1239.18,178.17L1239.18,178.17z M1232.35,176.53c0.43-0.01,0.86-0.07,1.28-0.18
	c0.38-0.08,0.74-0.2,1.09-0.36c0.35-0.18,0.69-0.39,1-0.64c0.27-0.27,0.64-0.55,0.91-0.82v-3.19c-1.04-0.02-2.08,0.08-3.1,0.27
	c-0.72,0.13-1.42,0.35-2.09,0.64c-0.46,0.2-0.87,0.52-1.18,0.91c-0.26,0.34-0.38,0.76-0.36,1.18c0.01,0.34,0.07,0.68,0.18,1
	c0.1,0.3,0.29,0.55,0.55,0.73c0.21,0.23,0.51,0.36,0.82,0.36C1231.62,176.44,1231.99,176.53,1232.35,176.53z"/>
<path class="st3" d="M1253.84,178.17c-0.35,0.03-0.66-0.21-0.73-0.55l-0.27-1.82c-0.59,0.78-1.33,1.43-2.19,1.91
	c-0.87,0.47-1.84,0.72-2.82,0.73c-0.82,0-1.63-0.18-2.37-0.55c-0.7-0.35-1.32-0.85-1.82-1.46c-0.54-0.74-0.94-1.58-1.18-2.46
	c-0.27-1.07-0.39-2.17-0.36-3.28c0-1.05,0.16-2.09,0.46-3.1c0.24-0.9,0.67-1.74,1.28-2.46c0.55-0.72,1.27-1.28,2.09-1.64
	c0.86-0.4,1.79-0.62,2.73-0.64c0.81-0.01,1.62,0.15,2.37,0.46c0.67,0.29,1.26,0.72,1.73,1.27v-8.38h2.64v21.95H1253.84z
	 M1248.74,176.17c0.81,0.04,1.61-0.18,2.28-0.64c0.71-0.45,1.33-1.04,1.82-1.73v-7.29c-0.41-0.6-0.98-1.07-1.64-1.37
	c-0.6-0.26-1.26-0.38-1.91-0.36c-1.28-0.05-2.5,0.53-3.28,1.55c-0.8,1.28-1.18,2.77-1.09,4.28c-0.01,0.86,0.08,1.71,0.27,2.55
	c0.15,0.61,0.4,1.19,0.73,1.73c0.3,0.43,0.71,0.78,1.18,1C1247.63,176.09,1248.19,176.18,1248.74,176.17z"/>
<path class="st3" d="M1264.32,182.63c-0.07,0.19-0.2,0.35-0.36,0.46c-0.19,0.13-0.41,0.19-0.64,0.18h-2l2.73-6.01l-6.19-14.21h2.28
	c0.2,0,0.39,0.07,0.55,0.18c0.09,0.09,0.18,0.27,0.27,0.36l4.01,9.47c0.09,0.18,0.18,0.46,0.27,0.64s0.09,0.46,0.18,0.64
	c0.09-0.2,0.15-0.42,0.18-0.64c0.09-0.18,0.18-0.46,0.27-0.64l3.92-9.47c0.07-0.14,0.16-0.26,0.27-0.36
	c0.18-0.09,0.27-0.18,0.46-0.18h2.09L1264.32,182.63z"/>
<path class="st3" d="M1284.54,170.16v8.01h-2.91v-21.4h6.28c1.2-0.01,2.39,0.15,3.55,0.46c0.93,0.23,1.77,0.7,2.46,1.37
	c0.66,0.56,1.17,1.28,1.46,2.09c0.64,1.77,0.61,3.72-0.09,5.46c-0.32,0.82-0.86,1.54-1.55,2.09c-0.7,0.65-1.54,1.11-2.46,1.37
	c-1.12,0.35-2.29,0.51-3.46,0.46L1284.54,170.16L1284.54,170.16z M1284.54,167.88h3.46c0.75,0.03,1.49-0.1,2.19-0.36
	c0.58-0.17,1.12-0.48,1.55-0.91c0.43-0.37,0.77-0.84,1-1.37c0.22-0.58,0.34-1.2,0.36-1.82c0.06-1.2-0.41-2.36-1.28-3.19
	c-1.09-0.85-2.45-1.27-3.82-1.18h-3.46V167.88z"/>
<path class="st3" d="M1309.49,178.17h-1.18c-0.22,0.02-0.44-0.01-0.64-0.09c-0.19-0.11-0.3-0.33-0.27-0.55l-0.27-1.37
	c-0.36,0.36-0.82,0.64-1.18,1c-0.37,0.28-0.77,0.52-1.18,0.73c-0.43,0.22-0.89,0.37-1.37,0.46c-0.51,0.11-1.03,0.17-1.55,0.18
	c-0.56,0-1.11-0.09-1.64-0.27c-0.49-0.17-0.95-0.41-1.37-0.73c-0.37-0.37-0.68-0.8-0.91-1.27c-0.23-0.58-0.35-1.2-0.36-1.82
	c0.01-0.6,0.17-1.2,0.46-1.73c0.4-0.6,0.93-1.09,1.55-1.46c0.91-0.52,1.89-0.89,2.91-1.09c1.44-0.28,2.91-0.4,4.37-0.36v-1.18
	c0.06-0.94-0.19-1.87-0.73-2.64c-0.55-0.62-1.36-0.96-2.19-0.91c-0.56-0.01-1.12,0.08-1.64,0.27c-0.46,0.18-0.82,0.36-1.18,0.55
	c-0.3,0.14-0.58,0.32-0.82,0.55c-0.21,0.17-0.46,0.26-0.73,0.27c-0.17,0-0.33-0.07-0.46-0.18c-0.09-0.09-0.27-0.18-0.36-0.36
	l-0.46-0.82c1.57-1.57,3.7-2.45,5.92-2.46c0.78,0,1.56,0.16,2.28,0.46c0.63,0.26,1.2,0.66,1.64,1.18c0.49,0.51,0.84,1.14,1,1.82
	c0.22,0.77,0.35,1.57,0.36,2.37L1309.49,178.17L1309.49,178.17z M1302.66,176.53c0.43-0.01,0.86-0.07,1.28-0.18
	c0.38-0.08,0.74-0.2,1.09-0.36c0.35-0.18,0.69-0.39,1-0.64c0.27-0.27,0.64-0.55,0.91-0.82v-3.19c-1.04-0.02-2.08,0.08-3.1,0.27
	c-0.72,0.13-1.42,0.35-2.09,0.64c-0.46,0.2-0.87,0.52-1.18,0.91c-0.26,0.34-0.38,0.76-0.36,1.18c0.01,0.34,0.07,0.68,0.18,1
	c0.1,0.3,0.29,0.55,0.55,0.73c0.22,0.21,0.51,0.34,0.82,0.36C1301.93,176.44,1302.3,176.53,1302.66,176.53z"/>
<path class="st3" d="M1313.5,178.17v-15.12h1.55c0.22,0.01,0.44,0.07,0.64,0.18c0.13,0.15,0.19,0.35,0.18,0.55l0.18,2.37
	c0.44-0.96,1.09-1.8,1.91-2.46c0.76-0.58,1.69-0.9,2.64-0.91c0.37,0,0.74,0.06,1.09,0.18c0.32,0.07,0.63,0.19,0.91,0.36l-0.36,2
	c-0.09,0.27-0.18,0.36-0.46,0.36c-0.22-0.03-0.43-0.09-0.64-0.18c-0.38-0.12-0.78-0.18-1.18-0.18c-0.84-0.04-1.66,0.26-2.28,0.82
	c-0.73,0.63-1.26,1.45-1.55,2.37v9.65H1313.5z"/>
<path class="st3" d="M1330.16,178.35c-1.01,0.05-2-0.31-2.73-1c-0.71-0.8-1.07-1.85-1-2.91v-9.29h-1.82c-0.14,0-0.28-0.07-0.36-0.18
	c-0.11-0.12-0.18-0.29-0.18-0.46v-1.09l2.46-0.27l0.64-4.64c0-0.14,0.07-0.28,0.18-0.36c0.12-0.11,0.29-0.18,0.46-0.18h1.37v5.19
	h4.37v1.91h-4.37v9.11c-0.02,0.52,0.14,1.04,0.46,1.46c0.3,0.33,0.74,0.5,1.18,0.46c0.25,0.02,0.49-0.01,0.73-0.09l0.55-0.27
	c0.14-0.07,0.26-0.16,0.36-0.27c0.07-0.07,0.17-0.1,0.27-0.09c0.18,0,0.27,0.09,0.36,0.27l0.82,1.27c-0.48,0.44-1.03,0.78-1.64,1
	C1331.61,178.21,1330.89,178.37,1330.16,178.35z"/>
<path class="st3" d="M1336.72,178.17v-15.12h1.55c0.35-0.03,0.66,0.21,0.73,0.55l0.18,1.64c0.62-0.7,1.36-1.29,2.19-1.73
	c0.87-0.46,1.84-0.68,2.82-0.64c0.75-0.03,1.49,0.1,2.19,0.36c0.62,0.23,1.16,0.65,1.55,1.18c0.44,0.54,0.78,1.16,1,1.82
	c0.22,0.77,0.35,1.57,0.36,2.37v9.65h-2.64v-9.65c0.07-0.95-0.23-1.89-0.82-2.64c-0.6-0.66-1.48-1-2.37-0.91
	c-0.76-0.01-1.52,0.17-2.19,0.55c-0.7,0.43-1.34,0.95-1.91,1.55v11.11L1336.72,178.17L1336.72,178.17z"/>
<path class="st3" d="M1359.21,162.78c0.87,0.01,1.73,0.16,2.55,0.46c0.75,0.28,1.43,0.72,2,1.27c0.58,0.59,1.02,1.31,1.27,2.09
	c0.31,0.94,0.46,1.92,0.46,2.91c0,0.46,0,0.73-0.09,0.82c-0.15,0.13-0.35,0.19-0.55,0.18h-10.02c0.01,0.83,0.13,1.66,0.36,2.46
	c0.2,0.64,0.54,1.23,1,1.73c0.42,0.44,0.91,0.81,1.46,1.09c0.6,0.27,1.26,0.39,1.91,0.36c0.59,0.01,1.17-0.08,1.73-0.27
	c0.42-0.18,0.84-0.33,1.28-0.46c0.32-0.16,0.62-0.34,0.91-0.55c0.18-0.15,0.4-0.25,0.64-0.27c0.21,0.01,0.41,0.11,0.55,0.27l0.73,1
	c-0.35,0.38-0.75,0.72-1.18,1c-0.46,0.3-0.95,0.54-1.46,0.73c-0.53,0.19-1.08,0.35-1.64,0.46c-0.54,0.08-1.09,0.11-1.64,0.09
	c-1,0-1.99-0.18-2.91-0.55c-0.86-0.35-1.63-0.88-2.28-1.55c-0.69-0.71-1.2-1.59-1.46-2.55c-0.38-1.11-0.56-2.28-0.55-3.46
	c0-0.99,0.16-1.97,0.46-2.91c0.32-0.86,0.79-1.66,1.37-2.37c0.63-0.65,1.37-1.17,2.19-1.55
	C1357.24,162.94,1358.23,162.78,1359.21,162.78z M1359.31,164.78c-1.11-0.06-2.2,0.33-3.01,1.09c-0.79,0.85-1.27,1.94-1.37,3.1h8.2
	c0.01-0.59-0.09-1.17-0.27-1.73c-0.17-0.49-0.41-0.95-0.73-1.37c-0.33-0.35-0.74-0.63-1.18-0.82
	C1360.42,164.86,1359.86,164.77,1359.31,164.78L1359.31,164.78z"/>
<path class="st3" d="M1368.87,178.17v-15.12h1.55c0.22,0.01,0.44,0.07,0.64,0.18c0.13,0.15,0.19,0.35,0.18,0.55l0.18,2.37
	c0.44-0.96,1.09-1.8,1.91-2.46c0.76-0.58,1.69-0.9,2.64-0.91c0.37,0,0.74,0.06,1.09,0.18c0.32,0.07,0.63,0.19,0.91,0.36l-0.36,2
	c-0.09,0.27-0.18,0.36-0.46,0.36c-0.22-0.03-0.43-0.09-0.64-0.18c-0.38-0.12-0.78-0.18-1.18-0.18c-0.84-0.04-1.66,0.26-2.28,0.82
	c-0.73,0.63-1.26,1.45-1.55,2.37v9.65H1368.87z"/>
<path class="st4" d="M1351.75,36.65c-25.15,0-45.54,20.39-45.54,45.54s20.39,45.54,45.54,45.54c25.15,0,45.54-20.39,45.54-45.54
	S1376.9,36.65,1351.75,36.65L1351.75,36.65z M1351.75,109.5c-15.09,0-27.32-12.23-27.32-27.32s12.23-27.32,27.32-27.32
	s27.32,12.23,27.32,27.32l0,0C1379.07,97.27,1366.84,109.5,1351.75,109.5z"/>
<path class="st4" d="M1256.12,36.65c-25.15,0-45.54,20.39-45.54,45.54s20.39,45.54,45.54,45.54c25.15,0,45.54-20.39,45.54-45.54
	S1281.27,36.65,1256.12,36.65L1256.12,36.65z M1256.12,109.5c-15.09,0-27.32-12.23-27.32-27.32s12.23-27.32,27.32-27.32
	s27.32,12.23,27.32,27.32l0,0C1283.44,97.27,1271.21,109.5,1256.12,109.5z"/>
<path class="st5" d="M1064.87,36.65c-25.15,0-45.54,20.39-45.54,45.54s20.39,45.54,45.54,45.54c25.15,0,45.54-20.39,45.54-45.54
	S1090.02,36.65,1064.87,36.65C1064.87,36.65,1064.87,36.65,1064.87,36.65z M1064.87,109.5c-15.09,0-27.32-12.23-27.32-27.32
	s12.23-27.32,27.32-27.32s27.32,12.23,27.32,27.32l0,0C1092.19,97.27,1079.96,109.5,1064.87,109.5z"/>
<path class="st4" d="M1196.93,9.23c-5.03,0-9.11,4.08-9.11,9.11v27.32c-20.12-15.09-48.66-11.01-63.75,9.11
	c-15.09,20.12-11.01,48.66,9.11,63.75c20.12,15.09,48.66,11.01,63.75-9.11c5.89-7.86,9.09-17.41,9.11-27.23l0,0V18.34
	C1206.03,13.31,1201.95,9.23,1196.93,9.23z M1160.5,109.41c-15.09,0-27.32-12.23-27.32-27.32s12.23-27.32,27.32-27.32
	s27.32,12.23,27.32,27.32S1175.59,109.41,1160.5,109.41L1160.5,109.41z"/>
</svg>
