<?xml version="1.0" encoding="utf-8"?>
<!-- Generator: Adobe Illustrator 24.1.2, SVG Export Plug-In . SVG Version: 6.00 Build 0)  -->
<svg version="1.1" id="Слой_1" xmlns="http://www.w3.org/2000/svg" xmlns:xlink="http://www.w3.org/1999/xlink" x="0px" y="0px"
	 viewBox="0 0 200 200" style="enable-background:new 0 0 200 200;" xml:space="preserve">
<style type="text/css">
	.st0{fill-rule:evenodd;clip-rule:evenodd;fill:#FFFFFF;stroke:#FFFFFF;stroke-width:2;stroke-miterlimit:10;}
	.st1{fill:#FFFFFF;stroke:#FFFFFF;stroke-width:2;stroke-miterlimit:10;}
	.st2{fill:#2EA0DA;}
	.st3{fill:#FFFFFF;}
</style>
<path class="st0" d="M74.9,73.9l25.3-27.2c1.7-1.8,3.9-2.8,6.3-2.8c2.3,0,4.6,1.1,6.3,2.9l15,16.5c1.7,1.8,2.6,4.3,2.6,6.9
	c0,2.6-1,5-2.7,6.9l-25.3,27.2c-1.7,1.8-3.9,2.8-6.3,2.8c-2.3,0-4.6-1.1-6.3-2.9l-15-16.6c-1.7-1.8-2.6-4.3-2.6-6.9
	C72.3,78.1,73.2,75.6,74.9,73.9z M77.4,76.6l25.3-27.2c1-1.1,2.3-1.6,3.8-1.6c1.4,0,2.8,0.6,3.8,1.7l15,16.5c1,1.1,1.5,2.6,1.5,4.1
	s-0.6,3-1.6,4.1l-25.3,27.2c-1,1.1-2.3,1.6-3.8,1.6c-1.4,0-2.8-0.6-3.8-1.7l-15-16.5c-1-1.1-1.5-2.6-1.5-4.1S76.4,77.7,77.4,76.6z"
	/>
<path class="st1" d="M109.9,47.4c0.2-0.5,0.5-0.9,0.9-1.1c0.4-0.2,0.9-0.3,1.3-0.1c0.4,0.2,0.8,0.5,1,1s0.3,1,0.1,1.5l-7.8,25
	c0,0,0,0,0,0.1c-0.5,1.4-1.3,2.7-2.2,3.7c-0.9,1-2.1,1.8-3.4,2.4c0,0,0,0-0.1,0L76.8,88c-0.4,0.2-0.9,0.1-1.3-0.1
	c-0.4-0.3-0.8-0.6-0.9-1.2c-0.2-0.5-0.1-1,0.1-1.5c0.3-0.5,0.6-0.8,1.1-1L98.7,76c0.8-0.3,1.5-0.8,2.1-1.5c0.6-0.6,1.1-1.4,1.3-2.2
	L109.9,47.4z"/>
<path class="st2" d="M101.2,90.1c0.3-0.4,0.8-0.5,1.3-0.5c0.5,0,0.9,0.2,1.3,0.5c0.3,0.4,0.5,0.9,0.5,1.4c0,0.5-0.2,1-0.5,1.4
	l-6.3,6.8c-0.3,0.4-0.8,0.5-1.3,0.5c-0.5,0-0.9-0.2-1.3-0.5c-0.3-0.4-0.5-0.9-0.5-1.4c0-0.5,0.2-1,0.5-1.4L101.2,90.1z"/>
<path class="st3" d="M81.6,148.5c-2.9,0-5.1-2.5-5.1-5.6v-28.8L32.9,64.5c-7.5-8.5-7.4-22.1,0.4-30.4c3.7-3.9,8.6-6.1,13.8-6h101.5
	c10.9,0,19.7,9.6,19.7,21.4c0,5.8-2.1,11.2-5.8,15.3l-46.8,51c-1.9,2.3-5.2,2.5-7.3,0.4c-2.1-2.1-2.3-5.7-0.3-8
	c0.1-0.1,0.3-0.3,0.3-0.4l46.8-50.9c3.7-4,3.7-10.5,0-14.5c-1.8-1.9-4.2-3-6.6-3H47.1c-5.2,0-9.4,4.6-9.4,10.2
	c0,2.7,0.9,5.2,2.7,7.1l45,51c0.9,1,1.4,2.5,1.4,3.9v31.2C86.8,146,84.5,148.5,81.6,148.5z"/>
<path class="st3" d="M81.6,171.9c-2.9,0-5.1-2.6-5.1-5.7c0-2.3,1.3-4.4,3.4-5.2l27.1-11.1v-38.2c0-3.1,2.3-5.6,5.1-5.6
	s5.1,2.5,5.1,5.6v42.1c0,2.4-1.3,4.5-3.4,5.3l-30.4,12.4C82.9,171.8,82.3,171.9,81.6,171.9z"/>
</svg>
