<?xml version="1.0" encoding="utf-8"?>
<!-- Generator: Adobe Illustrator 24.1.2, SVG Export Plug-In . SVG Version: 6.00 Build 0)  -->
<svg version="1.1" id="Слой_1" xmlns="http://www.w3.org/2000/svg" xmlns:xlink="http://www.w3.org/1999/xlink" x="0px" y="0px"
	 viewBox="0 0 800 800" style="enable-background:new 0 0 800 800;" xml:space="preserve">
<style type="text/css">
	.st0{fill-rule:evenodd;clip-rule:evenodd;fill:#2B3673;}
	.st1{fill:#2B3673;}
	.st2{fill:#2CA1DB;}
</style>
<path class="st0" d="M288.7,256.2h233c15.5,0,30.3,6.2,41.2,17c10.8,11,17,25.7,17,41.2v139.8c0,15.5-6.2,30.3-17,41.2
	c-11,10.8-25.7,17-41.2,17h-233c-15.5,0-30.3-6.2-41.2-17c-10.8-11-17-25.7-17-41.2V314.5c0-15.5,6.2-30.3,17-41.2
	C258.4,262.4,273.2,256.2,288.7,256.2z M288.7,279.5h233c9.3,0,18.2,3.7,24.7,10.3c6.5,6.5,10.3,15.4,10.3,24.7v139.8
	c0,9.3-3.7,18.2-10.3,24.7c-6.5,6.5-15.4,10.3-24.7,10.3h-233c-9.3,0-18.2-3.7-24.7-10.3c-6.5-6.5-10.3-15.4-10.3-24.7V314.5
	c0-9.3,3.7-18.2,10.3-24.7S279.4,279.5,288.7,279.5z"/>
<path class="st1" d="M563.1,304.1c2.8-1.4,5.9-1.6,9-0.7c2.9,1,5.4,3.1,6.6,5.8c1.4,2.8,1.6,5.9,0.7,9c-1,2.9-3.1,5.4-5.8,6.6
	L431.3,396c-0.1,0-0.2,0.1-0.3,0.1c-8,3.7-16.9,5.6-25.7,5.5c-8.9,0.1-17.7-1.7-25.7-5.5c-0.1,0-0.2-0.1-0.3-0.1l-142.2-71.2
	c-2.7-1.3-4.8-3.7-5.8-6.6c-0.9-3-0.7-6.2,0.7-9c1.3-2.7,3.7-4.8,6.6-5.8c3-0.9,6.2-0.7,9,0.7L389.7,375c4.9,2.3,10.3,3.4,15.7,3.3
	c5.5,0.1,10.8-0.9,15.7-3.3L563.1,304.1z"/>
<path class="st2" d="M342.8,447.4c3.1,0,6.1,1.3,8.3,3.4c2.1,2.2,3.4,5.1,3.4,8.3c0,3.1-1.3,6.1-3.4,8.3c-2.2,2.1-5.1,3.4-8.3,3.4
	h-58.2c-3.1,0-6.1-1.3-8.3-3.4c-2.1-2.2-3.4-5.1-3.4-8.3c0-3.1,1.3-6.1,3.4-8.3c2.2-2.1,5.1-3.4,8.3-3.4H342.8z"/>
</svg>
