<?xml version="1.0" encoding="utf-8"?>
<!-- Generator: Adobe Illustrator 24.1.2, SVG Export Plug-In . SVG Version: 6.00 Build 0)  -->
<svg version="1.1" id="Слой_1" xmlns="http://www.w3.org/2000/svg" xmlns:xlink="http://www.w3.org/1999/xlink" x="0px" y="0px"
	 viewBox="0 0 200 200" style="enable-background:new 0 0 200 200;" xml:space="preserve">
<style type="text/css">
	.st0{fill:#5DBFED;}
	.st1{fill:#2BA0DA;}
	.st2{fill:#1B93D2;}
	.st3{fill:#FFFFFF;stroke:#FFFFFF;stroke-width:5;stroke-miterlimit:10;}
	.st4{fill:#FFFFFF;stroke:#FFFFFF;stroke-miterlimit:10;}
	.st5{fill:#FFFFFF;}
</style>
<circle class="st0" cx="86" cy="108.8" r="5.4"/>
<circle class="st1" cx="103.2" cy="95.9" r="5.4"/>
<circle class="st2" cx="120.4" cy="110.9" r="5.4"/>
<path class="st3" d="M170.6,94.1c-0.9-1-2.2-1.9-3.5-2.2l-12.8-2.8c-0.6-0.2-1.3-0.6-1.5-1.5c-1-3.5-2.3-6.7-4.1-9.9
	c-0.4-0.6-0.4-1.5,0-2.2l7.1-11.2c1.5-2.6,1.3-5.8-0.9-7.7l-6-6c-2.2-2.2-5.4-2.6-7.7-0.9L130,57c-0.6,0.4-1.5,0.4-2.2,0
	c-3-1.7-6.4-3-9.9-4.1c-0.9-0.2-1.3-0.9-1.5-1.5l-2.8-12.8c-0.6-3-3.2-4.9-6.2-4.9h-8.3c-3,0-5.6,2.2-6.2,4.9l-2.8,12.8
	c-0.2,0.6-0.6,1.3-1.5,1.5c-3.5,1-6.7,2.3-9.9,4.1c-0.6,0.4-1.5,0.4-2.2,0l-11.2-7.1c-2.6-1.5-5.8-1.3-7.9,0.9l-6,6
	c-2.2,2.2-2.6,5.4-0.9,7.9l7.1,11.2c0.4,0.6,0.4,1.5,0,2.2c-1.7,3-3,6.2-4.1,9.9c-0.2,0.9-0.9,1.3-1.5,1.5l-12.8,2.8
	c-2.8,0.6-4.9,3.2-4.9,6.2v8.3c0,3,2.2,5.6,4.9,6.2l12.8,2.8c0.6,0.2,1.3,0.6,1.5,1.5c1,3.5,2.3,6.9,4.1,9.9c0.4,0.6,0.4,1.5,0,2.2
	l-7.1,11.2c-1.7,2.6-1.3,5.8,0.9,7.9l6,6c2.2,2.2,5.4,2.6,7.9,0.9l11.2-7.1c0.6-0.4,1.5-0.4,2.2,0c3,1.7,6.2,3,9.9,4.1
	c0.6,0.2,1.3,0.9,1.5,1.5c0.9,3.2,2.2,9.2,3,12.8c0.6,3,3.2,4.9,6.2,4.9h8.3c2.8,0,5.6-2.2,6.2-4.9l2.8-12.8
	c0.2-0.6,0.6-1.3,1.5-1.5c3.5-1,6.7-2.3,9.9-4.1c0.6-0.4,1.5-0.4,2.2,0l11.2,7.1c2.6,1.7,5.8,1.3,7.7-0.9l6-6
	c2.2-2.2,2.6-5.4,0.9-7.9l-7.1-11.2c-0.4-0.6-0.4-1.5,0-2.2c1.7-3.2,3-6.4,4.1-9.9c0.2-0.9,0.9-1.3,1.5-1.5c3.2-0.9,9.2-2.2,12.8-3
	c2.8-0.6,4.9-3.2,4.9-6.2v-8.3C171.9,96.7,171.4,95.3,170.6,94.1z M167.6,106.6c0,0.9-0.6,1.7-1.5,1.9c-3.6,0.9-9.6,2.2-12.8,2.8
	c-2.2,0.4-4.1,2.2-4.7,4.5c-0.9,3.2-2.2,6.2-3.6,9c-1,2.2-1,4.5,0.2,6.4l7.1,11.2c0.4,0.9,0.4,1.9-0.2,2.6l-6,6
	c-0.6,0.6-1.7,0.9-2.6,0.2l-11.2-7.1c-1.9-1.3-4.5-1.3-6.4-0.2c-2.8,1.5-5.8,2.8-9,3.6c-2.3,0.6-4.1,2.3-4.5,4.7l-2.8,12.8
	c-0.2,0.9-1,1.5-1.9,1.5h-8.3c-1,0-1.7-0.6-1.9-1.5c-0.9-3.6-2.2-9.5-2.8-12.8c-0.4-2.3-2.2-4.1-4.5-4.7c-3.2-1-6.2-2.2-9-3.6
	c-1-0.6-2.2-0.9-3.2-0.9c-1.3,0-2.3,0.4-3.5,1l-11.2,7.1c-0.9,0.4-1.7,0.4-2.6-0.2l-6-6c-0.6-0.6-0.9-1.7-0.2-2.6l7.1-11.2
	c1.3-1.9,1.3-4.3,0.2-6.4c-1.5-2.8-2.8-5.8-3.6-9c-0.6-2.2-2.3-4.1-4.7-4.5l-13.1-2.8c-0.9-0.2-1.5-1-1.5-1.9v-8.3
	c0-0.9,0.6-1.7,1.5-1.9l12.8-2.8c2.2-0.4,4.1-2.2,4.7-4.5c1-3.2,2.2-6.2,3.6-9c1-2.2,1-4.5-0.2-6.4l-7.1-11.2
	c-0.4-0.9-0.4-1.7,0.2-2.6l6-6c0.6-0.6,1.7-0.9,2.6-0.2l11.2,6.9c1.9,1.3,4.5,1.3,6.4,0.2c2.8-1.5,5.8-2.8,9-3.6
	c2.2-0.6,4.1-2.3,4.5-4.7l2.8-12.8c0.2-0.9,1-1.5,1.9-1.5h8.3c0.9,0,1.7,0.6,1.9,1.5l2.8,12.8c0.4,2.2,2.2,4.1,4.5,4.7
	c3,0.9,6.2,2.2,9,3.6c2.2,1,4.5,1,6.4-0.2l11.2-7.1c0.9-0.4,1.7-0.4,2.6,0.2l6,6c0.6,0.6,0.9,1.7,0.2,2.6l-6.9,11.2
	c-1.3,1.9-1.3,4.5-0.2,6.4c1.5,2.8,2.8,5.8,3.6,9c0.6,2.3,2.3,4.1,4.7,4.5l12.8,2.8c0.9,0.2,1.5,1,1.5,1.9
	C167.6,98,167.6,106.6,167.6,106.6z"/>
<path class="st4" d="M103.2,62.4c-22.1,0-40,17.9-40,40s17.9,40,40,40s40-17.9,40-40S125.3,62.4,103.2,62.4z M103.2,138.2
	c-19.7,0-35.8-16.1-35.8-35.8s16.1-35.8,35.8-35.8S139,82.6,139,102.4S122.9,138.2,103.2,138.2z"/>
<path class="st5" d="M88.2,101.4V82.8c0-1-1-2.2-2.2-2.2c-1.3,0-2.2,1-2.2,2.2v18.7c-3.2,1-5.4,3.9-5.4,7.3s2.2,6.2,5.4,7.1v5.8
	c0,1,0.9,2.2,2.2,2.2c1,0,2.2-1,2.2-2.2v-5.8c3.2-0.9,5.4-3.9,5.4-7.3C93.6,105.3,91.2,102.3,88.2,101.4z M88.2,111.1
	c-0.6,0.4-1.3,0.9-2.2,0.9c-0.9,0-1.7-0.4-2.2-0.9c-0.6-0.6-1-1.5-1-2.3c0-0.9,0.4-1.7,1-2.3c0.6-0.6,1.3-0.9,2.2-0.9
	c0.9,0,1.5,0.2,2.2,0.9c0.6,0.6,1,1.5,1,2.3C89.2,109.8,88.8,110.7,88.2,111.1z M105.4,88.6v-5.8c0-1-0.9-2.2-2.2-2.2
	c-1.3,0-2.2,1-2.2,2.2v5.8c-3,0.9-5.4,3.9-5.4,7.3c0,3.4,2.3,6.2,5.4,7.1v18.7c0,1,0.9,2.2,2.2,2.2c1.3,0,2.2-1,2.2-2.2V103
	c3-0.9,5.4-3.9,5.4-7.1C110.8,92.5,108.3,89.6,105.4,88.6z M105.4,98.2c-0.6,0.4-1.3,0.9-2.2,0.9c-0.9,0-1.5-0.4-2.2-0.9
	c-0.6-0.6-1-1.5-1-2.3c0-0.9,0.4-1.7,1-2.3c0.6-0.4,1.3-0.9,2.2-0.9c0.9,0,1.5,0.2,2.2,0.9c0.6,0.6,1,1.5,1,2.3
	C106.4,96.7,106,97.6,105.4,98.2z M122.6,103.9V83c0-1-1-2.2-2.2-2.2c-1.3,0-2.2,1-2.2,2.2v20.8c-3.2,0.9-5.4,3.9-5.4,7.3
	c0,3.5,2.3,6.2,5.4,7.3v3.6c0,1,0.9,2.2,2.2,2.2c1,0,2.2-1,2.2-2.2v-3.6c3-0.9,5.4-3.9,5.4-7.1C127.9,107.5,125.8,104.7,122.6,103.9
	z M122.6,113.2c-0.6,0.6-1.3,0.9-2.2,0.9s-1.5-0.2-2.2-0.9c-0.6-0.4-1-1.3-1-2.3c0-1,0.4-1.9,1-2.3s1.3-0.9,2.2-0.9s1.7,0.4,2.2,0.9
	c0.6,0.6,1,1.5,1,2.3S123.2,112.6,122.6,113.2z"/>
</svg>
