<?xml version="1.0" encoding="utf-8"?>
<!-- Generator: Adobe Illustrator 24.1.2, SVG Export Plug-In . SVG Version: 6.00 Build 0)  -->
<svg version="1.1" id="Слой_1" xmlns="http://www.w3.org/2000/svg" xmlns:xlink="http://www.w3.org/1999/xlink" x="0px" y="0px"
	 viewBox="0 0 200 200" style="enable-background:new 0 0 200 200;" xml:space="preserve">
<style type="text/css">
	.st0{fill-rule:evenodd;clip-rule:evenodd;fill:#FFFFFF;}
	.st1{fill:#FFFFFF;}
	.st2{fill:#2EA0DA;}
</style>
<path class="st0" d="M53.8,48.3h93.5c6.2,0,12.2,2.5,16.6,6.8c4.3,4.4,6.8,10.3,6.8,16.6v56.1c0,6.2-2.5,12.2-6.8,16.6
	c-4.4,4.3-10.3,6.8-16.6,6.8H53.8c-6.2,0-12.2-2.5-16.6-6.8c-4.3-4.4-6.8-10.3-6.8-16.6V71.7c0-6.2,2.5-12.2,6.8-16.6
	C41.6,50.8,47.5,48.3,53.8,48.3z M53.8,57.7h93.5c3.7,0,7.3,1.5,9.9,4.1c2.6,2.6,4.1,6.2,4.1,9.9v56.1c0,3.7-1.5,7.3-4.1,9.9
	s-6.2,4.1-9.9,4.1H53.8c-3.7,0-7.3-1.5-9.9-4.1c-2.6-2.6-4.1-6.2-4.1-9.9V71.7c0-3.7,1.5-7.3,4.1-9.9C46.5,59.2,50,57.7,53.8,57.7z"
	/>
<path class="st1" d="M163.9,67.6c1.1-0.6,2.4-0.7,3.6-0.3c1.2,0.4,2.2,1.2,2.6,2.3c0.6,1.1,0.7,2.4,0.3,3.6
	c-0.4,1.2-1.2,2.2-2.3,2.6L111,104.4c-0.1,0-0.1,0.1-0.1,0.1c-3.2,1.5-6.8,2.2-10.3,2.2c-3.5,0.1-7.1-0.7-10.3-2.2
	c-0.1,0-0.1-0.1-0.1-0.1L33,75.8c-1.1-0.5-1.9-1.5-2.3-2.6c-0.4-1.2-0.3-2.5,0.3-3.6c0.5-1.1,1.5-1.9,2.6-2.3
	c1.2-0.4,2.5-0.3,3.6,0.3L94.3,96c2,0.9,4.1,1.4,6.3,1.3c2.2,0.1,4.3-0.4,6.3-1.3L163.9,67.6z"/>
<path class="st2" d="M75.4,125.1c1.2,0,2.4,0.5,3.4,1.4c0.9,0.9,1.4,2,1.4,3.4c0,1.2-0.5,2.4-1.4,3.4c-0.9,0.9-2,1.4-3.4,1.4H52.1
	c-1.2,0-2.4-0.5-3.4-1.4c-0.9-0.9-1.4-2-1.4-3.4c0-1.2,0.5-2.4,1.4-3.4c0.9-0.9,2-1.4,3.4-1.4H75.4z"/>
</svg>
