<?xml version="1.0" encoding="utf-8"?>
<!-- Generator: Adobe Illustrator 24.1.2, SVG Export Plug-In . SVG Version: 6.00 Build 0)  -->
<svg version="1.1" id="Слой_1" xmlns="http://www.w3.org/2000/svg" xmlns:xlink="http://www.w3.org/1999/xlink" x="0px" y="0px"
	 viewBox="0 0 200 200" style="enable-background:new 0 0 200 200;" xml:space="preserve">
<style type="text/css">
	.st0{fill:#FFFFFF;}
	.st1{fill-rule:evenodd;clip-rule:evenodd;fill:#FFFFFF;}
	.st2{fill:#2EA0DA;}
</style>
<path class="st0" d="M136.8,139.1h-5.9c-1,0-1.6,0.8-1.6,1.6v12c0,4.5-3.7,8.2-8,8.1l-73.6,0.3c-3.9,0-7.2-2.7-8-6.4
	c-0.2-0.4-0.2-1.2-0.2-1.8l-0.1-75.9c0-0.4,0.4-1,1-1l30.8-0.1c5.4,0,9.7-4.4,9.7-9.7l-0.1-25.7c0-0.4,0.4-1,1-1l39-0.2
	c4.5,0,8.2,3.7,8.1,8l0.1,30.3c0,1,0.8,1.6,1.6,1.6h5.9c1,0,1.6-0.8,1.6-1.6l-0.1-35c0-7.1-5.7-12.8-13-12.9l-47.8,0.4
	c-1.3,0-2.8,0.4-3.8,1.4L31.8,69.6c-1.2,1.2-1.8,2.6-1.8,4.1l0.1,83.6c0,7.1,5.7,12.8,13,12.9l83,0.1c7.1-0.3,12.8-6.1,12.9-13.1
	l0.1-16.5C138.5,139.9,137.9,139.1,136.8,139.1z"/>
<path class="st1" d="M150.2,76l-53.6,54c-0.5,0.5-0.8,1.2-0.8,1.9l0.1,15.2c0,1.5,1.3,2.7,2.7,2.7l15.2-0.1c0.7,0,1.4-0.3,1.9-0.8
	l53.6-54c1.1-1.1,1.1-2.8,0-3.8L154,76C152.9,74.9,151.2,74.9,150.2,76z M101.1,144.3h9.4l-1.2-8.2l-8.2-1.2V144.3z M114.5,134.7
	l1,6.6l40.4-40.7l-3.8-3.8C152.1,96.8,114.5,134.7,114.5,134.7z M104.1,130l6.6,0.9L148.4,93l-3.8-3.8L104.1,130z M148.3,85.4
	l3.8-3.8l11.4,11.4l-3.8,3.8L148.3,85.4z"/>
<path class="st2" d="M69.1,144c0.8,0,1.5,0.4,2.1,0.8c0.5,0.5,0.8,1.3,0.8,2.1c0,0.8-0.4,1.5-0.8,2.1c-0.5,0.5-1.3,0.8-2.1,0.8H54.9
	c-0.8,0-1.5-0.4-2.1-0.8c-0.5-0.5-0.8-1.3-0.8-2.1s0.4-1.5,0.8-2.1c0.5-0.5,1.3-0.8,2.1-0.8H69.1z"/>
</svg>
